<mxfile host="drawio-plugin" modified="2021-08-23T19:59:38.528Z" agent="5.0 (Macintosh; Intel Mac OS X 11_4_0) AppleWebKit/537.36 (KHTML, like Gecko) Chrome/89.0.4389.114 Safari/537.36" version="14.7.4" etag="ayp5WAMMML_ja4zQDDMJ" type="embed"><diagram id="NrFg4SYojz8WcnPx_LVc" name="Page-1"><mxGraphModel dx="226" dy="253" grid="1" gridSize="10" guides="1" tooltips="1" connect="1" arrows="1" fold="1" page="1" pageScale="1" pageWidth="850" pageHeight="1100" math="0" shadow="0"><root><mxCell id="0"/><mxCell id="1" parent="0"/><mxCell id="6" style="edgeStyle=orthogonalEdgeStyle;rounded=0;orthogonalLoop=1;jettySize=auto;html=1;exitX=0.25;exitY=1;exitDx=0;exitDy=0;" edge="1" parent="1" source="2" target="4"><mxGeometry relative="1" as="geometry"/></mxCell><mxCell id="7" style="edgeStyle=orthogonalEdgeStyle;rounded=0;orthogonalLoop=1;jettySize=auto;html=1;exitX=0.75;exitY=1;exitDx=0;exitDy=0;entryX=0.5;entryY=0;entryDx=0;entryDy=0;" edge="1" parent="1" source="2" target="5"><mxGeometry relative="1" as="geometry"/></mxCell><mxCell id="2" value="Home Page" style="rounded=0;whiteSpace=wrap;html=1;" vertex="1" parent="1"><mxGeometry x="200" y="20" width="120" height="70" as="geometry"/></mxCell><mxCell id="9" style="edgeStyle=orthogonalEdgeStyle;rounded=0;orthogonalLoop=1;jettySize=auto;html=1;exitX=0.5;exitY=1;exitDx=0;exitDy=0;entryX=0.5;entryY=0;entryDx=0;entryDy=0;" edge="1" parent="1" source="4" target="8"><mxGeometry relative="1" as="geometry"/></mxCell><mxCell id="4" value="create account" style="rounded=1;whiteSpace=wrap;html=1;" vertex="1" parent="1"><mxGeometry x="60" y="190" width="120" height="60" as="geometry"/></mxCell><mxCell id="10" style="edgeStyle=orthogonalEdgeStyle;rounded=0;orthogonalLoop=1;jettySize=auto;html=1;exitX=0.5;exitY=1;exitDx=0;exitDy=0;" edge="1" parent="1" source="5"><mxGeometry relative="1" as="geometry"><mxPoint x="260" y="340" as="targetPoint"/></mxGeometry></mxCell><mxCell id="5" value="login form" style="rounded=1;whiteSpace=wrap;html=1;" vertex="1" parent="1"><mxGeometry x="350" y="190" width="120" height="60" as="geometry"/></mxCell><mxCell id="11" style="edgeStyle=orthogonalEdgeStyle;rounded=0;orthogonalLoop=1;jettySize=auto;html=1;exitX=1;exitY=0.5;exitDx=0;exitDy=0;" edge="1" parent="1" source="8"><mxGeometry relative="1" as="geometry"><mxPoint x="430" y="480" as="targetPoint"/></mxGeometry></mxCell><mxCell id="12" style="edgeStyle=orthogonalEdgeStyle;rounded=0;orthogonalLoop=1;jettySize=auto;html=1;exitX=0;exitY=0.5;exitDx=0;exitDy=0;" edge="1" parent="1" source="8"><mxGeometry relative="1" as="geometry"><mxPoint x="110" y="480" as="targetPoint"/></mxGeometry></mxCell><mxCell id="8" value="login page for both&amp;nbsp;" style="rounded=1;whiteSpace=wrap;html=1;" vertex="1" parent="1"><mxGeometry x="200" y="340" width="120" height="60" as="geometry"/></mxCell><mxCell id="13" value="Clinet" style="text;html=1;strokeColor=none;fillColor=none;align=center;verticalAlign=middle;whiteSpace=wrap;rounded=0;" vertex="1" parent="1"><mxGeometry x="130" y="340" width="40" height="20" as="geometry"/></mxCell><mxCell id="14" value="&lt;span style=&quot;font-family: , &amp;#34;menlo&amp;#34; , &amp;#34;consolas&amp;#34; , &amp;#34;pt mono&amp;#34; , &amp;#34;liberation mono&amp;#34; , &amp;#34;courier&amp;#34; , monospace ; line-height: normal ; background: rgba(135 , 131 , 120 , 0.15) ; border-radius: 3px ; font-size: 85% ; padding: 0.2em 0.4em&quot; spellcheck=&quot;false&quot; class=&quot;notion-enable-hover&quot;&gt;&lt;font color=&quot;#ffffff&quot;&gt;Instructor&lt;/font&gt;&lt;/span&gt;" style="text;html=1;strokeColor=none;fillColor=none;align=center;verticalAlign=middle;whiteSpace=wrap;rounded=0;" vertex="1" parent="1"><mxGeometry x="360" y="340" width="40" height="20" as="geometry"/></mxCell><mxCell id="15" value="&lt;ul&gt;&lt;br&gt;&lt;li&gt;&lt;code&gt;class time&lt;/code&gt;&lt;/li&gt;&lt;br&gt;&lt;li&gt;&lt;code&gt;class date&lt;/code&gt;&lt;/li&gt;&lt;br&gt;&lt;li&gt;&lt;code&gt;class duration&lt;/code&gt;&lt;/li&gt;&lt;br&gt;&lt;li&gt;&lt;code&gt;class type&lt;/code&gt;&lt;/li&gt;&lt;br&gt;&lt;li&gt;&lt;code&gt;intensity level&lt;/code&gt;&lt;/li&gt;&lt;br&gt;&lt;li&gt;&lt;code&gt;class location&lt;/code&gt;&lt;/li&gt;&lt;br&gt;&lt;/ul&gt;" style="rounded=1;whiteSpace=wrap;html=1;labelBackgroundColor=none;labelBorderColor=none;" vertex="1" parent="1"><mxGeometry x="20" y="480" width="190" height="250" as="geometry"/></mxCell><mxCell id="16" value="&lt;ul&gt;&lt;br/&gt;&lt;li&gt;&lt;code&gt;Name&lt;/code&gt;&lt;/li&gt;&lt;br/&gt;&lt;li&gt;&lt;code&gt;Type&lt;/code&gt;&lt;/li&gt;&lt;br/&gt;&lt;li&gt;&lt;code&gt;Start time&lt;/code&gt;&lt;/li&gt;&lt;br/&gt;&lt;li&gt;&lt;code&gt;Duration&lt;/code&gt;&lt;/li&gt;&lt;br/&gt;&lt;li&gt;&lt;code&gt;Intensity level&lt;/code&gt;&lt;/li&gt;&lt;br/&gt;&lt;li&gt;&lt;code&gt;Location&lt;/code&gt;&lt;/li&gt;&lt;br/&gt;&lt;li&gt;&lt;code&gt;Current number of registered attendees&lt;/code&gt;&lt;/li&gt;&lt;br/&gt;&lt;li&gt;&lt;code&gt;Max class size&lt;/code&gt;&lt;/li&gt;&lt;br/&gt;&lt;/ul&gt;" style="rounded=1;whiteSpace=wrap;html=1;labelBackgroundColor=none;labelBorderColor=none;" vertex="1" parent="1"><mxGeometry x="330" y="480" width="190" height="250" as="geometry"/></mxCell></root></mxGraphModel></diagram></mxfile>